<svg width="2485" height="493" viewBox="0 0 2485 493" fill="none" xmlns="http://www.w3.org/2000/svg">
<g clip-path="url(#clip0_145_9)">
<path d="M492.314 0H265.846V69.012H492.314V0Z" fill="#22C55E"/>
<path d="M492.314 108.465V354.955H141.789V493H0V266.216H265.846V108.465H492.314Z" fill="#22C55E"/>
<path d="M492.314 394.408H181.166V493H492.314V394.408Z" fill="#22C55E"/>
<path d="M226.468 0H0V226.784H226.468V0Z" fill="#22C55E"/>
</g>
<path d="M702.6 369.4C683.6 369.4 668.8 364.6 658.2 355C647.6 345.2 642.3 330.7 642.3 311.5V169.9H689.1V310.9C689.1 317.7 690.9 323 694.5 326.8C698.1 330.4 703 332.2 709.2 332.2C716.6 332.2 722.9 330.2 728.1 326.2L740.7 359.2C735.9 362.6 730.1 365.2 723.3 367C716.7 368.6 709.8 369.4 702.6 369.4ZM617.4 241.6V205.6H729.3V241.6H617.4ZM827.091 369.4C808.691 369.4 792.491 365.8 778.491 358.6C764.691 351.4 753.991 341.6 746.391 329.2C738.791 316.6 734.991 302.3 734.991 286.3C734.991 270.1 738.691 255.8 746.091 243.4C753.691 230.8 763.991 221 776.991 214C789.991 206.8 804.691 203.2 821.091 203.2C836.891 203.2 851.091 206.6 863.691 213.4C876.491 220 886.591 229.6 893.991 242.2C901.391 254.6 905.091 269.5 905.091 286.9C905.091 288.7 904.991 290.8 904.791 293.2C904.591 295.4 904.391 297.5 904.191 299.5H773.091V272.2H879.591L861.591 280.3C861.591 271.9 859.891 264.6 856.491 258.4C853.091 252.2 848.391 247.4 842.391 244C836.391 240.4 829.391 238.6 821.391 238.6C813.391 238.6 806.291 240.4 800.091 244C794.091 247.4 789.391 252.3 785.991 258.7C782.591 264.9 780.891 272.3 780.891 280.9V288.1C780.891 296.9 782.791 304.7 786.591 311.5C790.591 318.1 796.091 323.2 803.091 326.8C810.291 330.2 818.691 331.9 828.291 331.9C836.891 331.9 844.391 330.6 850.791 328C857.391 325.4 863.391 321.5 868.791 316.3L893.691 343.3C886.291 351.7 876.991 358.2 865.791 362.8C854.591 367.2 841.691 369.4 827.091 369.4ZM1015.85 367V335.5L1012.85 328.6V272.2C1012.85 262.2 1009.75 254.4 1003.55 248.8C997.554 243.2 988.254 240.4 975.654 240.4C967.054 240.4 958.554 241.8 950.154 244.6C941.954 247.2 934.954 250.8 929.154 255.4L912.354 222.7C921.154 216.5 931.754 211.7 944.154 208.3C956.554 204.9 969.154 203.2 981.954 203.2C1006.55 203.2 1025.65 209 1039.25 220.6C1052.85 232.2 1059.65 250.3 1059.65 274.9V367H1015.85ZM966.654 369.4C954.054 369.4 943.254 367.3 934.254 363.1C925.254 358.7 918.354 352.8 913.554 345.4C908.754 338 906.354 329.7 906.354 320.5C906.354 310.9 908.654 302.5 913.254 295.3C918.054 288.1 925.554 282.5 935.754 278.5C945.954 274.3 959.254 272.2 975.654 272.2H1018.55V299.5H980.754C969.754 299.5 962.154 301.3 957.954 304.9C953.954 308.5 951.954 313 951.954 318.4C951.954 324.4 954.254 329.2 958.854 332.8C963.654 336.2 970.154 337.9 978.354 337.9C986.154 337.9 993.154 336.1 999.354 332.5C1005.55 328.7 1010.05 323.2 1012.85 316L1020.05 337.6C1016.65 348 1010.45 355.9 1001.45 361.3C992.454 366.7 980.854 369.4 966.654 369.4ZM1087.01 367V205.6H1131.71V249.7L1123.31 236.8C1128.91 225.8 1136.81 217.5 1147.01 211.9C1157.41 206.1 1169.21 203.2 1182.41 203.2C1197.21 203.2 1210.11 207 1221.11 214.6C1232.31 222 1239.71 233.4 1243.31 248.8L1226.81 244.3C1232.21 231.7 1240.81 221.7 1252.61 214.3C1264.61 206.9 1278.31 203.2 1293.71 203.2C1306.51 203.2 1317.81 205.8 1327.61 211C1337.61 216 1345.41 223.8 1351.01 234.4C1356.81 244.8 1359.71 258.2 1359.71 274.6V367H1312.91V281.8C1312.91 268.8 1310.21 259.2 1304.81 253C1299.41 246.8 1291.81 243.7 1282.01 243.7C1275.21 243.7 1269.11 245.3 1263.71 248.5C1258.31 251.5 1254.11 256.1 1251.11 262.3C1248.11 268.5 1246.61 276.4 1246.61 286V367H1199.81V281.8C1199.81 268.8 1197.11 259.2 1191.71 253C1186.51 246.8 1179.01 243.7 1169.21 243.7C1162.41 243.7 1156.31 245.3 1150.91 248.5C1145.51 251.5 1141.31 256.1 1138.31 262.3C1135.31 268.5 1133.81 276.4 1133.81 286V367H1087.01ZM1490.46 370.6C1474.26 370.6 1459.16 368 1445.16 362.8C1431.36 357.4 1419.36 349.8 1409.16 340C1398.96 330.2 1390.96 318.7 1385.16 305.5C1379.56 292.3 1376.76 277.8 1376.76 262C1376.76 246.2 1379.56 231.7 1385.16 218.5C1390.96 205.3 1398.96 193.8 1409.16 184C1419.56 174.2 1431.66 166.7 1445.46 161.5C1459.26 156.1 1474.36 153.4 1490.76 153.4C1508.96 153.4 1525.36 156.6 1539.96 163C1554.76 169.2 1567.16 178.4 1577.16 190.6L1545.96 219.4C1538.76 211.2 1530.76 205.1 1521.96 201.1C1513.16 196.9 1503.56 194.8 1493.16 194.8C1483.36 194.8 1474.36 196.4 1466.16 199.6C1457.96 202.8 1450.86 207.4 1444.86 213.4C1438.86 219.4 1434.16 226.5 1430.76 234.7C1427.56 242.9 1425.96 252 1425.96 262C1425.96 272 1427.56 281.1 1430.76 289.3C1434.16 297.5 1438.86 304.6 1444.86 310.6C1450.86 316.6 1457.96 321.2 1466.16 324.4C1474.36 327.6 1483.36 329.2 1493.16 329.2C1503.56 329.2 1513.16 327.2 1521.96 323.2C1530.76 319 1538.76 312.7 1545.96 304.3L1577.16 333.1C1567.16 345.3 1554.76 354.6 1539.96 361C1525.36 367.4 1508.86 370.6 1490.46 370.6ZM1659.98 369.4C1642.78 369.4 1627.48 365.8 1614.08 358.6C1600.88 351.4 1590.38 341.6 1582.58 329.2C1574.98 316.6 1571.18 302.3 1571.18 286.3C1571.18 270.1 1574.98 255.8 1582.58 243.4C1590.38 230.8 1600.88 221 1614.08 214C1627.48 206.8 1642.78 203.2 1659.98 203.2C1676.98 203.2 1692.18 206.8 1705.58 214C1718.98 221 1729.48 230.7 1737.08 243.1C1744.68 255.5 1748.48 269.9 1748.48 286.3C1748.48 302.3 1744.68 316.6 1737.08 329.2C1729.48 341.6 1718.98 351.4 1705.58 358.6C1692.18 365.8 1676.98 369.4 1659.98 369.4ZM1659.98 331C1667.78 331 1674.78 329.2 1680.98 325.6C1687.18 322 1692.08 316.9 1695.68 310.3C1699.28 303.5 1701.08 295.5 1701.08 286.3C1701.08 276.9 1699.28 268.9 1695.68 262.3C1692.08 255.7 1687.18 250.6 1680.98 247C1674.78 243.4 1667.78 241.6 1659.98 241.6C1652.18 241.6 1645.18 243.4 1638.98 247C1632.78 250.6 1627.78 255.7 1623.98 262.3C1620.38 268.9 1618.58 276.9 1618.58 286.3C1618.58 295.5 1620.38 303.5 1623.98 310.3C1627.78 316.9 1632.78 322 1638.98 325.6C1645.18 329.2 1652.18 331 1659.98 331ZM1860.16 369.4C1845.96 369.4 1833.76 366.4 1823.56 360.4C1813.36 354.4 1805.56 345.3 1800.16 333.1C1794.76 320.7 1792.06 305.1 1792.06 286.3C1792.06 267.3 1794.86 251.7 1800.46 239.5C1806.26 227.3 1814.26 218.2 1824.46 212.2C1834.66 206.2 1846.56 203.2 1860.16 203.2C1875.36 203.2 1888.96 206.6 1900.96 213.4C1913.16 220.2 1922.76 229.8 1929.76 242.2C1936.96 254.6 1940.56 269.3 1940.56 286.3C1940.56 303.1 1936.96 317.7 1929.76 330.1C1922.76 342.5 1913.16 352.2 1900.96 359.2C1888.96 366 1875.36 369.4 1860.16 369.4ZM1764.76 367V144.4H1811.56V238.3L1808.56 286L1809.46 334V367H1764.76ZM1852.06 331C1859.86 331 1866.76 329.2 1872.76 325.6C1878.96 322 1883.86 316.9 1887.46 310.3C1891.26 303.5 1893.16 295.5 1893.16 286.3C1893.16 276.9 1891.26 268.9 1887.46 262.3C1883.86 255.7 1878.96 250.6 1872.76 247C1866.76 243.4 1859.86 241.6 1852.06 241.6C1844.26 241.6 1837.26 243.4 1831.06 247C1824.86 250.6 1819.96 255.7 1816.36 262.3C1812.76 268.9 1810.96 276.9 1810.96 286.3C1810.96 295.5 1812.76 303.5 1816.36 310.3C1819.96 316.9 1824.86 322 1831.06 325.6C1837.26 329.2 1844.26 331 1852.06 331ZM2024.99 369.4C2011.59 369.4 1999.59 366.8 1988.99 361.6C1978.59 356.4 1970.49 348.5 1964.69 337.9C1958.89 327.1 1955.99 313.4 1955.99 296.8V205.6H2002.79V289.9C2002.79 303.3 2005.59 313.2 2011.19 319.6C2016.99 325.8 2025.09 328.9 2035.49 328.9C2042.69 328.9 2049.09 327.4 2054.69 324.4C2060.29 321.2 2064.69 316.4 2067.89 310C2071.09 303.4 2072.69 295.2 2072.69 285.4V205.6H2119.49V367H2075.09V322.6L2083.19 335.5C2077.79 346.7 2069.79 355.2 2059.19 361C2048.79 366.6 2037.39 369.4 2024.99 369.4ZM2147.85 367V205.6H2194.65V367H2147.85ZM2171.25 183.1C2162.65 183.1 2155.65 180.6 2150.25 175.6C2144.85 170.6 2142.15 164.4 2142.15 157C2142.15 149.6 2144.85 143.4 2150.25 138.4C2155.65 133.4 2162.65 130.9 2171.25 130.9C2179.85 130.9 2186.85 133.3 2192.25 138.1C2197.65 142.7 2200.35 148.7 2200.35 156.1C2200.35 163.9 2197.65 170.4 2192.25 175.6C2187.05 180.6 2180.05 183.1 2171.25 183.1ZM2223.08 367V144.4H2269.88V367H2223.08ZM2367.62 369.4C2352.42 369.4 2338.72 366 2326.52 359.2C2314.32 352.2 2304.62 342.5 2297.42 330.1C2290.42 317.7 2286.92 303.1 2286.92 286.3C2286.92 269.3 2290.42 254.6 2297.42 242.2C2304.62 229.8 2314.32 220.2 2326.52 213.4C2338.72 206.6 2352.42 203.2 2367.62 203.2C2381.22 203.2 2393.12 206.2 2403.32 212.2C2413.52 218.2 2421.42 227.3 2427.02 239.5C2432.62 251.7 2435.42 267.3 2435.42 286.3C2435.42 305.1 2432.72 320.7 2427.32 333.1C2421.92 345.3 2414.12 354.4 2403.92 360.4C2393.92 366.4 2381.82 369.4 2367.62 369.4ZM2375.72 331C2383.32 331 2390.22 329.2 2396.42 325.6C2402.62 322 2407.52 316.9 2411.12 310.3C2414.92 303.5 2416.82 295.5 2416.82 286.3C2416.82 276.9 2414.92 268.9 2411.12 262.3C2407.52 255.7 2402.62 250.6 2396.42 247C2390.22 243.4 2383.32 241.6 2375.72 241.6C2367.92 241.6 2360.92 243.4 2354.72 247C2348.52 250.6 2343.52 255.7 2339.72 262.3C2336.12 268.9 2334.32 276.9 2334.32 286.3C2334.32 295.5 2336.12 303.5 2339.72 310.3C2343.52 316.9 2348.52 322 2354.72 325.6C2360.92 329.2 2367.92 331 2375.72 331ZM2418.02 367V334L2418.92 286L2415.92 238.3V144.4H2462.72V367H2418.02Z" fill="black" fill-opacity="0.8"/>
<defs>
<clipPath id="clip0_145_9">
<rect width="493" height="493" fill="white"/>
</clipPath>
</defs>
</svg>
