<svg xmlns="http://www.w3.org/2000/svg" viewBox="0 0 776.79 230.9"><defs><style>.cls-1{fill:#132b14;}.cls-2{fill:#ffca28;}</style></defs><g id="Layer_2" data-name="Layer 2"><g id="Layer_1-2" data-name="Layer 1"><path d="M424.5,49.8q22.1,10.1,34.6,27.8a67.53,67.53,0,0,1,12.5,39.9,66.76,66.76,0,0,1-12.5,39.6q-12.51,17.6-34.5,27.7t-49.4,10.1a117.38,117.38,0,0,1-48.8-10.1Q304,174.71,290.9,157a64.77,64.77,0,0,1-13.1-39.5,65.49,65.49,0,0,1,13.1-39.8Q304,59.9,326.3,49.8A116.68,116.68,0,0,1,375,39.7Q402.39,39.7,424.5,49.8ZM396.7,152.7a41.79,41.79,0,0,0,16.7-13.8q6.39-9,6.4-21.4A36,36,0,0,0,413.3,96a41.26,41.26,0,0,0-16.9-13.8,52,52,0,0,0-21.6-4.7,50.11,50.11,0,0,0-21.6,4.8,40.82,40.82,0,0,0-16.5,13.9,36.5,36.5,0,0,0-6.3,21.3q0,12.41,6.4,21.4a41.66,41.66,0,0,0,16.7,13.8,51,51,0,0,0,43.2,0Z"/><path d="M626.4,134.7a66.25,66.25,0,0,1-7,29.7,53.39,53.39,0,0,1-18.71,21,49.14,49.14,0,0,1-27.29,7.7q-36.21.79-53-15.6l-2.4,13H475.8V42.9h11a35,35,0,0,1,35,35V93.5q17-15.6,51.6-15.6a48.69,48.69,0,0,1,27.4,7.9,54.06,54.06,0,0,1,18.6,20.7,62,62,0,0,1,7,27v1.2Zm-54,22.5q7.59-8.89,7.79-22.7a31,31,0,0,0-7.89-20.7q-7.71-8.7-21.9-8.7-12.81,0-20.71,8.4t-7.89,22.4v.6a30,30,0,0,0,3.7,14.6A29.08,29.08,0,0,0,535.69,162a27,27,0,0,0,14.71,4.1Q564.8,166.1,572.4,157.2Z"/><path d="M754,86.7q22.8,9.6,22.8,33.8v70.4h-43.6l-3.4-14.2v-1q-5,9-21.1,13.2a138.77,138.77,0,0,1-35.1,4.2,74.78,74.78,0,0,1-30.4-6.7Q628,179.7,628,158.3q0-33.79,44.2-33.8,28.39,0,39.6-.5t14.8-2a5.82,5.82,0,0,0,3.8-5.5v-2.6q-.2-6.6-8.7-9.7a56,56,0,0,0-19.3-3.1q-11.21.2-19.1,4.2t-7.9,12.2h-46.2q0-15.19,12-24.3a70.74,70.74,0,0,1,28.7-12.6,159.35,159.35,0,0,1,32.7-3.5Q731.2,77.1,754,86.7Zm-32,70.6a23.18,23.18,0,0,0,8.2-16.8v-2.8q-7.61,3.2-24.2,3.2-17.21,0-24.1,2.4t-7.1,8.8a10.72,10.72,0,0,0,6.3,8.9q5.7,2.9,18.5,2.9Q714.4,163.9,722,157.3Z"/><path d="M670,66.18l38.16-25q7.2,11.37,14.38,22.75l-31,6Z"/><circle cx="375" cy="217.68" r="13.22"/><path class="cls-1" d="M231,116.36a113.06,113.06,0,0,1-.69,11.85,115.5,115.5,0,0,1-101.78,102,95.41,95.41,0,0,1-1.75-13.42v-.06c.1-1.89.15-3.75.15-5.66s0-3.77-.15-5.66v-.06a95.2,95.2,0,0,1,95-89.48C224.87,115.92,227.94,116.07,231,116.36Z"/><path class="cls-1" d="M112.8,205.4v.06c-.1,1.89-.15,3.75-.15,5.66s0,3.77.15,5.66v.06a94.2,94.2,0,0,1-1.89,14.06A115.49,115.49,0,0,1,.67,128.21c-.39-3.5-.62-7-.67-10.63A95.27,95.27,0,0,1,112.8,205.4Z"/><path class="cls-2" d="M230.21,102.32Q226,102,221.77,102a109.14,109.14,0,0,0-102,70.28A109.22,109.22,0,0,0,.61,103.35a115.5,115.5,0,0,1,229.6-1Z"/></g></g></svg>